<svg xmlns="http://www.w3.org/2000/svg" width="512" height="512" viewBox="0 0 512 512" version="1.1"><path d="M 335.500 178.222 C 333.850 178.807, 331.150 180.185, 329.500 181.285 C 327.850 182.384, 305.700 204.018, 280.278 229.360 L 234.055 275.437 208.278 249.864 C 184.895 226.668, 182.003 224.128, 177.152 222.533 C 167.253 219.277, 156.891 221.519, 149.740 228.464 C 145.022 233.047, 142.684 238.409, 142.186 245.793 C 141.385 257.673, 141.152 257.365, 181.266 297.663 C 221.472 338.053, 223.200 339.420, 234 339.383 C 238.749 339.366, 241.713 338.746, 245 337.082 C 250.622 334.235, 362.806 222.728, 366.817 216 C 369.129 212.122, 369.500 210.394, 369.500 203.500 C 369.500 194.199, 367.898 190.134, 361.854 184.089 C 355.581 177.816, 343.948 175.226, 335.500 178.222" stroke="none" fill="#fafaec" fill-rule="evenodd"/><path d="M 245.500 17.673 C 240.094 19.930, 233.278 24.314, 221.235 33.276 C 202.896 46.925, 196.544 48.509, 171.798 45.607 C 148.128 42.831, 140.076 43.819, 132.327 50.452 C 126.654 55.308, 123.077 61.262, 115.752 78.037 C 105.696 101.068, 101.844 105.319, 84 113.075 C 63.365 122.045, 57.714 125.155, 52.401 130.469 C 43.760 139.110, 42.600 146.162, 45.607 171.798 C 47.616 188.929, 47.063 197.878, 43.531 205.342 C 42.079 208.413, 36.664 216.668, 31.498 223.687 C 18.191 241.766, 16.500 245.410, 16.500 256 C 16.500 266.590, 18.191 270.234, 31.498 288.313 C 36.664 295.332, 42.079 303.587, 43.531 306.658 C 47.063 314.122, 47.616 323.071, 45.607 340.202 C 42.831 363.872, 43.819 371.924, 50.452 379.673 C 55.308 385.346, 61.262 388.923, 78.037 396.248 C 101.068 406.304, 105.319 410.156, 113.075 428 C 120.969 446.161, 124.848 453.546, 128.923 458.176 C 137.204 467.583, 145.980 469.319, 171 466.500 C 197.947 463.464, 202.001 464.542, 223.688 480.503 C 241.766 493.809, 245.410 495.500, 256 495.500 C 266.590 495.500, 270.234 493.809, 288.312 480.503 C 295.330 475.338, 303.487 469.930, 306.439 468.486 C 313.674 464.946, 322.960 464.371, 340.202 466.393 C 362.730 469.035, 370.921 468.231, 378.225 462.658 C 384.500 457.871, 388.554 451.462, 395.919 434.685 C 407.032 409.371, 409.212 407.187, 434.500 396.039 C 465.693 382.287, 470.003 375.682, 466.941 346.320 C 466.148 338.719, 465.506 327.998, 465.513 322.495 C 465.529 310.051, 467.040 306.605, 480.503 288.312 C 493.809 270.234, 495.500 266.590, 495.500 256 C 495.500 245.410, 493.809 241.766, 480.503 223.688 C 467.040 205.395, 465.529 201.949, 465.513 189.505 C 465.506 184.002, 466.148 173.281, 466.941 165.680 C 470.003 136.318, 465.693 129.713, 434.500 115.961 C 409.341 104.870, 406.912 102.461, 396.248 78.037 C 388.923 61.262, 385.346 55.308, 379.673 50.452 C 371.924 43.819, 363.872 42.831, 340.202 45.607 C 323.243 47.596, 314.105 47.054, 306.869 43.631 C 303.915 42.234, 295.648 36.815, 288.499 31.589 C 271.132 18.896, 266.528 16.661, 257 16.292 C 251.704 16.087, 248.325 16.493, 245.500 17.673 M 335.500 178.222 C 333.850 178.807, 331.150 180.185, 329.500 181.285 C 327.850 182.384, 305.700 204.018, 280.278 229.360 L 234.055 275.437 208.278 249.864 C 184.895 226.668, 182.003 224.128, 177.152 222.533 C 167.253 219.277, 156.891 221.519, 149.740 228.464 C 145.022 233.047, 142.684 238.409, 142.186 245.793 C 141.385 257.673, 141.152 257.365, 181.266 297.663 C 221.472 338.053, 223.200 339.420, 234 339.383 C 238.749 339.366, 241.713 338.746, 245 337.082 C 250.622 334.235, 362.806 222.728, 366.817 216 C 369.129 212.122, 369.500 210.394, 369.500 203.500 C 369.500 194.199, 367.898 190.134, 361.854 184.089 C 355.581 177.816, 343.948 175.226, 335.500 178.222" stroke="none" fill="#246cec" fill-rule="evenodd"/></svg>